<svg width="18" height="17" viewBox="0 0 18 17" fill="none" xmlns="http://www.w3.org/2000/svg">
<path d="M6.56805 16.0229C6.96969 16.0229 7.29529 15.6973 7.29529 15.2956C7.29529 14.894 6.96969 14.5684 6.56805 14.5684C6.16641 14.5684 5.84082 14.894 5.84082 15.2956C5.84082 15.6973 6.16641 16.0229 6.56805 16.0229Z" stroke="#030D15" stroke-width="1.5" stroke-linecap="round" stroke-linejoin="round"/>
<path d="M14.5681 16.0229C14.9698 16.0229 15.2954 15.6973 15.2954 15.2956C15.2954 14.894 14.9698 14.5684 14.5681 14.5684C14.1664 14.5684 13.8408 14.894 13.8408 15.2956C13.8408 15.6973 14.1664 16.0229 14.5681 16.0229Z" stroke="#030D15" stroke-width="1.5" stroke-linecap="round" stroke-linejoin="round"/>
<path d="M0.75 0.75H3.65911L5.60822 10.4882C5.67472 10.823 5.85688 11.1238 6.1228 11.3379C6.38872 11.5519 6.72146 11.6656 7.06278 11.6591H14.1319C14.4732 11.6656 14.806 11.5519 15.0719 11.3379C15.3378 11.1238 15.52 10.823 15.5865 10.4882L16.7501 4.38636H4.38639" stroke="#030D15" stroke-width="1.5" stroke-linecap="round" stroke-linejoin="round"/>
</svg>
