<svg width="16" height="16" viewBox="0 0 16 16" fill="none" xmlns="http://www.w3.org/2000/svg">
<path d="M11.75 0.5H4.25C2.17893 0.5 0.5 2.17893 0.5 4.25V11.75C0.5 13.8211 2.17893 15.5 4.25 15.5H11.75C13.8211 15.5 15.5 13.8211 15.5 11.75V4.25C15.5 2.17893 13.8211 0.5 11.75 0.5Z" stroke="white" stroke-linecap="round" stroke-linejoin="round"/>
<path d="M11 7.52647C11.0926 8.1507 10.986 8.78823 10.6953 9.34837C10.4047 9.90852 9.94488 10.3628 9.38124 10.6465C8.8176 10.9302 8.17886 11.0289 7.55586 10.9287C6.93287 10.8284 6.35734 10.5343 5.91115 10.088C5.46496 9.64182 5.17082 9.06625 5.07058 8.4432C4.97033 7.82015 5.06907 7.18136 5.35277 6.61767C5.63646 6.05399 6.09066 5.59412 6.65076 5.30347C7.21086 5.01282 7.84834 4.9062 8.47252 4.99876C9.10921 5.09318 9.69866 5.38989 10.1538 5.84506C10.6089 6.30023 10.9056 6.88972 11 7.52647Z" stroke="white" stroke-linecap="round" stroke-linejoin="round"/>
<path d="M12.125 3.87354H12.1324" stroke="white" stroke-linecap="round" stroke-linejoin="round"/>
</svg>
