<svg width="16" height="16" viewBox="0 0 16 16" fill="none" xmlns="http://www.w3.org/2000/svg">
<path d="M11.0002 5C12.1936 5 13.3382 5.47413 14.1821 6.31809C15.026 7.16204 15.5001 8.30669 15.5001 9.50023V14.7505H12.5002V9.50023C12.5002 9.10238 12.3421 8.72083 12.0608 8.43951C11.7795 8.15819 11.398 8.00015 11.0002 8.00015C10.6024 8.00015 10.2208 8.15819 9.93954 8.43951C9.65824 8.72083 9.5002 9.10238 9.5002 9.50023V14.7505H6.50024V9.50023C6.50024 8.30669 6.97434 7.16204 7.81825 6.31809C8.66215 5.47413 9.80673 5 11.0002 5V5Z" stroke="white" stroke-linecap="round" stroke-linejoin="round"/>
<path d="M3.5 5.75H0.5V14.7505H3.5V5.75Z" stroke="white" stroke-linecap="round" stroke-linejoin="round"/>
<path d="M2 3.5C2.82843 3.5 3.5 2.82843 3.5 2C3.5 1.17157 2.82843 0.5 2 0.5C1.17157 0.5 0.5 1.17157 0.5 2C0.5 2.82843 1.17157 3.5 2 3.5Z" stroke="white" stroke-linecap="round" stroke-linejoin="round"/>
</svg>
