<svg width="20" height="16" viewBox="0 0 20 16" fill="none" xmlns="http://www.w3.org/2000/svg">
<path d="M18.8909 0.508406C18.0904 1.07307 17.2041 1.50495 16.266 1.78741C15.7626 1.20852 15.0935 0.798223 14.3492 0.612002C13.605 0.425781 12.8215 0.472624 12.1048 0.746195C11.388 1.01977 10.7726 1.50686 10.3417 2.14161C9.91076 2.77636 9.6852 3.52813 9.69548 4.29525V5.1312C8.22641 5.1693 6.77073 4.84348 5.45806 4.18277C4.1454 3.52207 3.01652 2.54698 2.17194 1.34435C2.17194 1.34435 -1.17185 8.86789 6.35169 12.2117C4.63007 13.3803 2.57918 13.9663 0.500046 13.8836C8.02358 18.0633 17.219 13.8836 17.219 4.27018C17.2182 4.03733 17.1959 3.80505 17.1521 3.57634C18.0053 2.73495 18.6074 1.67264 18.8909 0.508406V0.508406Z" stroke="white" stroke-linecap="round" stroke-linejoin="round"/>
</svg>
