<svg width="15" height="16" viewBox="0 0 15 16" fill="none" xmlns="http://www.w3.org/2000/svg">
<path d="M7.45515 9.01196C2.64765 9.01196 0 11.2862 0 15.4159C0 15.7384 0.261412 15.9998 0.58395 15.9998H14.3263C14.6489 15.9998 14.9103 15.7384 14.9103 15.4159C14.9103 11.2864 12.2627 9.01196 7.45515 9.01196ZM1.18915 14.8319C1.41884 11.7442 3.52398 10.1799 7.45515 10.1799C11.3863 10.1799 13.4915 11.7442 13.7214 14.8319H1.18915Z" fill="#030D15"/>
<path d="M7.45526 0C5.24698 0 3.58179 1.69869 3.58179 3.95116C3.58179 6.2696 5.31941 8.15554 7.45526 8.15554C9.59111 8.15554 11.3287 6.2696 11.3287 3.95135C11.3287 1.69869 9.66355 0 7.45526 0ZM7.45526 6.98785C5.96329 6.98785 4.74966 5.62569 4.74966 3.95135C4.74966 2.3385 5.88757 1.16788 7.45526 1.16788C8.99786 1.16788 10.1609 2.36438 10.1609 3.95135C10.1609 5.62569 8.94723 6.98785 7.45526 6.98785Z" fill="#030D15"/>
</svg>
