<svg width="19" height="14" viewBox="0 0 19 14" fill="none" xmlns="http://www.w3.org/2000/svg">
<path d="M18.1232 2.47997C18.026 2.09168 17.8281 1.73591 17.5494 1.44859C17.2707 1.16128 16.9211 0.9526 16.536 0.843632C15.1288 0.5 9.5 0.5 9.5 0.5C9.5 0.5 3.8712 0.5 2.464 0.876359C2.07886 0.985327 1.72929 1.19401 1.45061 1.48132C1.17193 1.76863 0.973997 2.12441 0.876812 2.5127C0.619273 3.94086 0.493297 5.38964 0.500468 6.84083C0.491288 8.30294 0.617272 9.76276 0.876812 11.2017C0.983955 11.5779 1.18632 11.9202 1.46435 12.1953C1.74239 12.4705 2.08669 12.6693 2.464 12.7726C3.8712 13.1489 9.5 13.1489 9.5 13.1489C9.5 13.1489 15.1288 13.1489 16.536 12.7726C16.9211 12.6636 17.2707 12.4549 17.5494 12.1676C17.8281 11.8803 18.026 11.5245 18.1232 11.1362C18.3787 9.71882 18.5047 8.28108 18.4995 6.84083C18.5087 5.37872 18.3827 3.91889 18.1232 2.47997V2.47997Z" stroke="white" stroke-linecap="round" stroke-linejoin="round"/>
<path d="M7.65942 9.51611L12.3636 6.84082L7.65942 4.16553V9.51611Z" stroke="white" stroke-linecap="round" stroke-linejoin="round"/>
</svg>
